<?xml version="1.0" encoding="UTF-8" standalone="no"?>
<!-- Created with Inkscape (http://www.inkscape.org/) -->

<svg
   xmlns:dc="http://purl.org/dc/elements/1.1/"
   xmlns:cc="http://creativecommons.org/ns#"
   xmlns:rdf="http://www.w3.org/1999/02/22-rdf-syntax-ns#"
   xmlns:svg="http://www.w3.org/2000/svg"
   xmlns="http://www.w3.org/2000/svg"
   xmlns:sodipodi="http://sodipodi.sourceforge.net/DTD/sodipodi-0.dtd"
   xmlns:inkscape="http://www.inkscape.org/namespaces/inkscape"
   width="210mm"
   height="297mm"
   viewBox="0 0 210 297"
   version="1.1"
   id="svg8"
   inkscape:export-filename="C:\Users\Senistan.JEGARAJASIN\Desktop\Student Invaders\Student-Invaders\Code\android\assets\Game\Eleve2mots.png"
   inkscape:export-xdpi="96"
   inkscape:export-ydpi="96"
   inkscape:version="0.92.2 (5c3e80d, 2017-08-06)"
   sodipodi:docname="Elève2mots.svg">
  <defs
     id="defs2" />
  <sodipodi:namedview
     id="base"
     pagecolor="#ffffff"
     bordercolor="#666666"
     borderopacity="1.0"
     inkscape:pageopacity="0.0"
     inkscape:pageshadow="2"
     inkscape:zoom="0.49497475"
     inkscape:cx="199.18907"
     inkscape:cy="640.78444"
     inkscape:document-units="mm"
     inkscape:current-layer="layer1"
     showgrid="false"
     inkscape:window-width="1920"
     inkscape:window-height="1018"
     inkscape:window-x="-8"
     inkscape:window-y="-8"
     inkscape:window-maximized="1" />
  <metadata
     id="metadata5">
    <rdf:RDF>
      <cc:Work
         rdf:about="">
        <dc:format>image/svg+xml</dc:format>
        <dc:type
           rdf:resource="http://purl.org/dc/dcmitype/StillImage" />
        <dc:title></dc:title>
      </cc:Work>
    </rdf:RDF>
  </metadata>
  <g
     inkscape:label="Calque 1"
     inkscape:groupmode="layer"
     id="layer1">
    <path
       style="fill:#ffccaa;stroke:#000000;stroke-width:2.66499996;stroke-linecap:butt;stroke-linejoin:miter;stroke-miterlimit:4;stroke-dasharray:none;stroke-opacity:1"
       d="m 121.04811,155.45104 c 35.1702,12.72795 35.34103,21.95394 35.34103,21.95394 0,0 3.32989,5.88465 -3.90035,5.12038 -7.23024,-0.76425 -23.34418,-7.9607 -23.34418,-7.9607 l -4.70988,-1.80198 z"
       id="path4609-2"
       inkscape:connector-curvature="0" />
    <path
       style="fill:#ffccaa;stroke:#000000;stroke-width:2.66499996;stroke-linecap:butt;stroke-linejoin:miter;stroke-miterlimit:4;stroke-dasharray:none;stroke-opacity:1"
       d="m 75.037025,157.73707 c -34.851329,13.57677 -34.798463,22.80419 -34.798463,22.80419 0,0 -3.186255,5.96364 4.023336,5.02433 7.209577,-0.9393 23.144339,-8.52425 23.144339,-8.52425 l 4.664818,-1.91562 z"
       id="path4609"
       inkscape:connector-curvature="0" />
    <path
       style="fill:#ff5555;stroke:#000000;stroke-width:2.66499996;stroke-linecap:butt;stroke-linejoin:miter;stroke-miterlimit:4;stroke-dasharray:none;stroke-opacity:1"
       d="m 72.071055,169.83402 c 0,0 -15.556175,46.02062 10.192555,49.07521 25.74876,3.05459 34.12662,-0.81719 34.12662,-0.81719 0,0 11.8041,1.22962 12.59316,-23.10114 0.78905,-24.33075 -9.20611,-53.63036 -9.20611,-53.63036 l -37.206447,-0.20281 z"
       id="path4611"
       inkscape:connector-curvature="0"
       sodipodi:nodetypes="cscsccc" />
    <ellipse
       id="path3703"
       cx="84.517632"
       cy="122.01004"
       rx="44.601189"
       ry="43.845234"
       style="fill:#ff9955;fill-opacity:1;stroke:#000000;stroke-width:2.2650001;stroke-miterlimit:4;stroke-dasharray:none;stroke-opacity:1"
       transform="rotate(-7.6920724)" />
    <ellipse
       transform="matrix(0.9905221,-0.13735348,0.13043089,0.9914574,0,0)"
       style="fill:#ffccaa;fill-opacity:1;stroke:none;stroke-width:2.1041677;stroke-miterlimit:4;stroke-dasharray:none;stroke-opacity:1"
       ry="41.252178"
       rx="40.911583"
       cy="121.34749"
       cx="87.890617"
       id="ellipse4519" />
    <path
       style="fill:#ffffff;stroke:#000000;stroke-width:0.86366385;stroke-linecap:butt;stroke-linejoin:miter;stroke-miterlimit:4;stroke-dasharray:none;stroke-opacity:1"
       d="m 69.40735,93.394985 h 27.299041 c 0,0 -3.275886,15.829615 -12.55756,13.631055 C 74.867158,104.82748 69.40735,93.394985 69.40735,93.394985 Z"
       id="path4521"
       inkscape:connector-curvature="0" />
    <path
       style="fill:#ffffff;stroke:#000000;stroke-width:0.86366391;stroke-linecap:butt;stroke-linejoin:miter;stroke-miterlimit:4;stroke-dasharray:none;stroke-opacity:1"
       d="m 104.00135,93.300491 h 27.2991 c 0,0 -3.27588,15.829619 -12.55756,13.631059 -9.2817,-2.19856 -14.74154,-13.631059 -14.74154,-13.631059 z"
       id="path4521-3"
       inkscape:connector-curvature="0" />
    <ellipse
       style="fill:#000000;fill-opacity:1;stroke:none;stroke-width:2.66499996;stroke-miterlimit:4;stroke-dasharray:none;stroke-opacity:1"
       id="path4538"
       cx="84.780067"
       cy="98.260132"
       rx="2.4568453"
       ry="2.2678571" />
    <ellipse
       style="fill:#000000;fill-opacity:1;stroke:none;stroke-width:2.66499996;stroke-miterlimit:4;stroke-dasharray:none;stroke-opacity:1"
       id="path4538-8"
       cx="119.44049"
       cy="98.260132"
       rx="2.4568453"
       ry="2.2678571" />
    <path
       style="fill:#000000;stroke:#000000;stroke-width:0.12463261px;stroke-linecap:butt;stroke-linejoin:miter;stroke-opacity:1"
       d="M 71.374209,85.303764 94.886436,79.402577 89.81498,85.69096 72.775961,89.266381 Z"
       id="path4559"
       inkscape:connector-curvature="0" />
    <path
       style="fill:#000000;stroke:#000000;stroke-width:0.12306012px;stroke-linecap:butt;stroke-linejoin:miter;stroke-opacity:1"
       d="m 129.53413,83.51002 -23.80477,-3.985168 5.18775,5.698166 17.24357,2.211637 z"
       id="path4559-2"
       inkscape:connector-curvature="0" />
    <path
       style="fill:#ffffff;stroke:#000000;stroke-width:0.71100003;stroke-linecap:butt;stroke-linejoin:miter;stroke-miterlimit:4;stroke-dasharray:none;stroke-opacity:1"
       d="m 118.5418,118.73179 c -16.65596,23.59602 -33.065336,-0.21665 -33.065336,-0.21665 z"
       id="path4586"
       inkscape:connector-curvature="0" />
    <rect
       style="fill:#ffffff;fill-opacity:1;stroke:#000000;stroke-width:3.29999995;stroke-miterlimit:4;stroke-dasharray:none;stroke-opacity:1"
       id="rect4628"
       width="135.77292"
       height="37.952274"
       x="32.483326"
       y="177.57185" />
    <path
       style="fill:#803300;fill-opacity:1;stroke:#000000;stroke-width:0.35127804px;stroke-linecap:butt;stroke-linejoin:miter;stroke-opacity:1"
       d="m 101.32865,78.867937 c 0,0 -14.922562,-11.389357 -25.253825,-2.687323 -10.331263,8.702033 -17.967567,17.246933 -17.967567,17.246933 l 4.634289,-23.798484 -17.03846,1.537378 25.000887,-23.992611 13.062812,4.90635 18.535504,-21.547899 -3.950191,19.475984 34.032391,-6.630122 -10.93898,9.116419 30.75991,-1.350975 -18.90935,7.566716 27.34107,10.57292 -25.74064,-0.909635 7.12721,23.580526 c 0,0 -17.57619,-26.961832 -30.6422,-19.088561 -13.066001,7.87327 -10.05286,6.002384 -10.05286,6.002384 z"
       id="path865"
       inkscape:connector-curvature="0"
       sodipodi:nodetypes="csccccccccccccccsc" />
  </g>
</svg>
