<?xml version="1.0" encoding="UTF-8" standalone="no"?>
<!-- Created with Inkscape (http://www.inkscape.org/) -->

<svg
   xmlns:dc="http://purl.org/dc/elements/1.1/"
   xmlns:cc="http://creativecommons.org/ns#"
   xmlns:rdf="http://www.w3.org/1999/02/22-rdf-syntax-ns#"
   xmlns:svg="http://www.w3.org/2000/svg"
   xmlns="http://www.w3.org/2000/svg"
   xmlns:sodipodi="http://sodipodi.sourceforge.net/DTD/sodipodi-0.dtd"
   xmlns:inkscape="http://www.inkscape.org/namespaces/inkscape"
   width="210mm"
   height="297mm"
   viewBox="0 0 210 297"
   version="1.1"
   id="svg4709"
   inkscape:version="0.92.2 (5c3e80d, 2017-08-06)"
   sodipodi:docname="ProfRetourne.svg"
   inkscape:export-filename="C:\Users\Senistan.JEGARAJASIN\Desktop\Student Invaders\Student-Invaders\Sprites\Prof.png"
   inkscape:export-xdpi="96"
   inkscape:export-ydpi="96">
  <defs
     id="defs4703" />
  <sodipodi:namedview
     id="base"
     pagecolor="#ffffff"
     bordercolor="#666666"
     borderopacity="1.0"
     inkscape:pageopacity="0.0"
     inkscape:pageshadow="2"
     inkscape:zoom="0.7"
     inkscape:cx="-2.6790055"
     inkscape:cy="764.76355"
     inkscape:document-units="mm"
     inkscape:current-layer="layer1"
     showgrid="false"
     objecttolerance="20"
     inkscape:window-width="1920"
     inkscape:window-height="1018"
     inkscape:window-x="-8"
     inkscape:window-y="-8"
     inkscape:window-maximized="1" />
  <metadata
     id="metadata4706">
    <rdf:RDF>
      <cc:Work
         rdf:about="">
        <dc:format>image/svg+xml</dc:format>
        <dc:type
           rdf:resource="http://purl.org/dc/dcmitype/StillImage" />
        <dc:title></dc:title>
      </cc:Work>
    </rdf:RDF>
  </metadata>
  <g
     inkscape:label="Calque 1"
     inkscape:groupmode="layer"
     id="layer1">
    <path
       style="fill:#808080;stroke:#000000;stroke-width:1.11224461;stroke-linecap:butt;stroke-linejoin:miter;stroke-miterlimit:4;stroke-dasharray:none;stroke-opacity:1"
       d="m 116.59462,201.72823 c 0,0 8.56561,-7.00716 13.70497,-3.31918 5.13937,3.68798 9.42218,5.90076 17.98779,5.90076 8.5656,0 9.85044,10.69514 9.85044,10.69514 0,0 -8.13733,10.69513 -24.84026,3.68798 -16.70294,-7.00716 -16.70294,-16.9647 -16.70294,-16.9647 z"
       id="path6066-5"
       inkscape:connector-curvature="0" />
    <path
       style="fill:#808080;stroke:#000000;stroke-width:1.08299994;stroke-linecap:butt;stroke-linejoin:miter;stroke-miterlimit:4;stroke-dasharray:none;stroke-opacity:1"
       d="m 87.797328,201.09542 c 0,0 -8.020788,-7.09478 -12.833261,-3.36069 -4.812472,3.7341 -8.822867,5.97456 -16.843655,5.97456 -8.020787,0 -9.223906,10.82888 -9.223906,10.82888 0,0 7.619749,10.82888 23.260285,3.7341 15.640537,-7.09478 15.640537,-17.17685 15.640537,-17.17685 z"
       id="path6066"
       inkscape:connector-curvature="0" />
    <path
       style="fill:#ffccaa;fill-opacity:1;stroke:#000000;stroke-width:1.74106503;stroke-linecap:butt;stroke-linejoin:miter;stroke-miterlimit:4;stroke-dasharray:none;stroke-opacity:1"
       d="m 134.11933,128.58379 c 0,0 43.13951,27.78517 28.7187,34.00373 -14.42078,6.21855 -34.33626,-20.75219 -34.33626,-20.75219 z"
       id="path5364-4"
       inkscape:connector-curvature="0" />
    <path
       style="fill:#ffccaa;fill-opacity:1;stroke:#000000;stroke-width:1.74106503;stroke-linecap:butt;stroke-linejoin:miter;stroke-miterlimit:4;stroke-dasharray:none;stroke-opacity:1"
       d="m 80.513278,128.7168 c 0,0 -45.373754,23.96361 -31.542593,31.40196 13.831146,7.43832 35.997108,-17.71555 35.997108,-17.71555 z"
       id="path5364"
       inkscape:connector-curvature="0" />
    <path
       style="fill:#ffffff;fill-opacity:1;stroke:#000000;stroke-width:2.06999993;stroke-linecap:butt;stroke-linejoin:miter;stroke-miterlimit:4;stroke-dasharray:none;stroke-opacity:1"
       d="m 127.93008,113.199 -40.41076,-0.71957 c 0,0 -33.908816,53.23867 -24.868161,71.23748 14.568677,29.0044 73.033531,34.79336 83.930041,0 8.28734,-26.46206 -19.96857,-70.4206 -18.65112,-70.51791 z"
       id="path5360"
       inkscape:connector-curvature="0"
       sodipodi:nodetypes="ccssc" />
    <ellipse
       id="path3703"
       cx="92.624985"
       cy="95.87233"
       rx="44.601189"
       ry="43.845234"
       style="fill:#ff9955;fill-opacity:1;stroke:#000000;stroke-width:2.26499987;stroke-miterlimit:4;stroke-dasharray:none;stroke-opacity:1"
       transform="rotate(-7.6920726)" />
    <ellipse
       transform="matrix(0.9905221,-0.13735348,0.13043089,0.9914574,0,0)"
       style="fill:#ffccaa;fill-opacity:1;stroke:none;stroke-width:2.1041677;stroke-miterlimit:4;stroke-dasharray:none;stroke-opacity:1"
       ry="41.252178"
       rx="40.911583"
       cy="95.237946"
       cx="95.908165"
       id="ellipse4519" />
    <path
       style="fill:#ffffff;fill-opacity:1;stroke:#000000;stroke-width:0.35984731;stroke-linecap:butt;stroke-linejoin:miter;stroke-miterlimit:4;stroke-dasharray:none;stroke-opacity:1"
       d="m 79.663908,66.759677 19.790988,0.26727 c 0,0 3.366404,11.820159 -9.995865,11.660015 C 75.796035,78.523214 79.663908,66.759677 79.663908,66.759677 Z"
       id="path4733"
       inkscape:connector-curvature="0"
       sodipodi:nodetypes="ccsc" />
    <path
       style="fill:#ffffff;fill-opacity:1;stroke:#000000;stroke-width:0.35984731;stroke-linecap:butt;stroke-linejoin:miter;stroke-miterlimit:4;stroke-dasharray:none;stroke-opacity:1"
       d="m 113.03931,66.873792 19.79203,0.174384 c 0,0 3.42183,11.80423 -9.94103,11.7068 -13.66362,-0.09962 -9.851,-11.881184 -9.851,-11.881184 z"
       id="path4733-3"
       inkscape:connector-curvature="0"
       sodipodi:nodetypes="ccsc" />
    <ellipse
       style="fill:#000000;fill-opacity:1;stroke:none;stroke-width:0.85599995;stroke-miterlimit:4;stroke-dasharray:none;stroke-opacity:1"
       id="path5295"
       cx="89.268585"
       cy="73.042519"
       rx="1.8708867"
       ry="2.1381562" />
    <ellipse
       style="fill:#000000;fill-opacity:1;stroke:none;stroke-width:0.85600001;stroke-miterlimit:4;stroke-dasharray:none;stroke-opacity:1"
       id="path5295-0"
       cx="123.59821"
       cy="73.04911"
       rx="1.8708867"
       ry="2.1381562" />
    <rect
       style="fill:none;fill-opacity:1;stroke:#000000;stroke-width:1.59595442;stroke-miterlimit:4;stroke-dasharray:none;stroke-opacity:1"
       id="rect5312"
       width="27.76457"
       height="15.985165"
       x="74.858681"
       y="64.869675" />
    <rect
       style="fill:#000000;fill-opacity:1;stroke:none;stroke-width:10.19382095;stroke-miterlimit:4;stroke-dasharray:none;stroke-opacity:1"
       id="rect5329"
       width="8.0642939"
       height="2.5820382"
       x="102.22611"
       y="64.072838" />
    <rect
       style="fill:none;fill-opacity:1;stroke:#000000;stroke-width:1.59595442;stroke-miterlimit:4;stroke-dasharray:none;stroke-opacity:1"
       id="rect5312-5"
       width="27.76457"
       height="15.985165"
       x="109.8635"
       y="64.881096" />
    <rect
       style="fill:#000000;fill-opacity:1;stroke:none;stroke-width:0.44678476;stroke-miterlimit:4;stroke-dasharray:none;stroke-opacity:1"
       id="rect5335"
       width="13.974031"
       height="1.4544612"
       x="85.458839"
       y="-4.920599"
       transform="matrix(0.72244082,0.69143276,-0.61462292,0.78882106,0,0)" />
    <rect
       style="fill:#000000;fill-opacity:1;stroke:none;stroke-width:0.44678476;stroke-miterlimit:4;stroke-dasharray:none;stroke-opacity:1"
       id="rect5335-7"
       width="13.974032"
       height="1.4544612"
       x="69.042282"
       y="-144.22346"
       transform="matrix(0.72244082,-0.69143276,-0.61462293,-0.78882105,0,0)" />
    <path
       style="fill:#b3b3b3;stroke:#000000;stroke-width:1.06022692;stroke-linecap:butt;stroke-linejoin:miter;stroke-miterlimit:4;stroke-dasharray:none;stroke-opacity:1"
       d="M 82.825121,119.81107 40.081394,124.41929 78.640172,109.24868 29.476118,106.76319 72.610751,93.597152 20.557898,78.542276 70.842608,73.558499 17.016476,41.81161 66.761902,47.336056 26.673929,18.717353 l 44.453498,8.571536 7.641298,-38.375847 23.045455,37.835789 28.008,-36.3672152 -0.98369,38.0409892 39.50602,-3.814293 -41.80375,23.26653 53.68703,-0.518471 -42.59973,17.524724 41.42273,0.283004 -37.20241,22.386907 30.55284,15.903124 -35.67309,-2.66356 25.35519,25.85013 -27.05917,-8.50055 z"
       id="path5358"
       inkscape:connector-curvature="0"
       sodipodi:nodetypes="cccccccccccccccccccccccccc" />
  </g>
</svg>
