<?xml version="1.0" encoding="UTF-8" standalone="no"?>
<!-- Created with Inkscape (http://www.inkscape.org/) -->

<svg
   xmlns:dc="http://purl.org/dc/elements/1.1/"
   xmlns:cc="http://creativecommons.org/ns#"
   xmlns:rdf="http://www.w3.org/1999/02/22-rdf-syntax-ns#"
   xmlns:svg="http://www.w3.org/2000/svg"
   xmlns="http://www.w3.org/2000/svg"
   xmlns:sodipodi="http://sodipodi.sourceforge.net/DTD/sodipodi-0.dtd"
   xmlns:inkscape="http://www.inkscape.org/namespaces/inkscape"
   width="210mm"
   height="297mm"
   viewBox="0 0 210 297"
   version="1.1"
   id="svg4709"
   inkscape:version="0.92.2 (5c3e80d, 2017-08-06)"
   sodipodi:docname="Prof.svg"
   inkscape:export-filename="C:\Users\Senistan.JEGARAJASIN\Desktop\Student Invaders\Student-Invaders\Sprites\Prof.png"
   inkscape:export-xdpi="96"
   inkscape:export-ydpi="96">
  <defs
     id="defs4703" />
  <sodipodi:namedview
     id="base"
     pagecolor="#ffffff"
     bordercolor="#666666"
     borderopacity="1.0"
     inkscape:pageopacity="0.0"
     inkscape:pageshadow="2"
     inkscape:zoom="0.7"
     inkscape:cx="-208.9639"
     inkscape:cy="821.90641"
     inkscape:document-units="mm"
     inkscape:current-layer="layer1"
     showgrid="false"
     objecttolerance="20"
     inkscape:window-width="1920"
     inkscape:window-height="1018"
     inkscape:window-x="-8"
     inkscape:window-y="-8"
     inkscape:window-maximized="1" />
  <metadata
     id="metadata4706">
    <rdf:RDF>
      <cc:Work
         rdf:about="">
        <dc:format>image/svg+xml</dc:format>
        <dc:type
           rdf:resource="http://purl.org/dc/dcmitype/StillImage" />
        <dc:title />
      </cc:Work>
    </rdf:RDF>
  </metadata>
  <g
     inkscape:label="Calque 1"
     inkscape:groupmode="layer"
     id="layer1">
    <path
       style="fill:#808080;stroke:#000000;stroke-width:1.11224461;stroke-linecap:butt;stroke-linejoin:miter;stroke-miterlimit:4;stroke-dasharray:none;stroke-opacity:1"
       d="m 116.59462,201.72823 c 0,0 8.56561,-7.00716 13.70497,-3.31918 5.13937,3.68798 9.42218,5.90076 17.98779,5.90076 8.5656,0 9.85044,10.69514 9.85044,10.69514 0,0 -8.13733,10.69513 -24.84026,3.68798 -16.70294,-7.00716 -16.70294,-16.9647 -16.70294,-16.9647 z"
       id="path6066-5"
       inkscape:connector-curvature="0" />
    <path
       style="fill:#808080;stroke:#000000;stroke-width:1.08299994;stroke-linecap:butt;stroke-linejoin:miter;stroke-miterlimit:4;stroke-dasharray:none;stroke-opacity:1"
       d="m 87.797328,201.09542 c 0,0 -8.020788,-7.09478 -12.833261,-3.36069 -4.812472,3.7341 -8.822867,5.97456 -16.843655,5.97456 -8.020787,0 -9.223906,10.82888 -9.223906,10.82888 0,0 7.619749,10.82888 23.260285,3.7341 15.640537,-7.09478 15.640537,-17.17685 15.640537,-17.17685 z"
       id="path6066"
       inkscape:connector-curvature="0" />
    <path
       style="fill:#ffccaa;fill-opacity:1;stroke:#000000;stroke-width:1.74106503;stroke-linecap:butt;stroke-linejoin:miter;stroke-miterlimit:4;stroke-dasharray:none;stroke-opacity:1"
       d="m 134.11933,128.58379 c 0,0 43.13951,27.78517 28.7187,34.00373 -14.42078,6.21855 -34.33626,-20.75219 -34.33626,-20.75219 z"
       id="path5364-4"
       inkscape:connector-curvature="0" />
    <path
       style="fill:#ffccaa;fill-opacity:1;stroke:#000000;stroke-width:1.74106503;stroke-linecap:butt;stroke-linejoin:miter;stroke-miterlimit:4;stroke-dasharray:none;stroke-opacity:1"
       d="m 80.513278,128.7168 c 0,0 -45.373754,23.96361 -31.542593,31.40196 13.831146,7.43832 35.997108,-17.71555 35.997108,-17.71555 z"
       id="path5364"
       inkscape:connector-curvature="0" />
    <path
       style="fill:#00aad4;fill-opacity:1;stroke:#000000;stroke-width:2.06999993;stroke-linecap:butt;stroke-linejoin:miter;stroke-miterlimit:4;stroke-dasharray:none;stroke-opacity:1"
       d="m 127.93008,113.199 -40.41076,-0.71957 c 0,0 -33.908816,53.23867 -24.868161,71.23748 14.568677,29.0044 73.033531,34.79336 83.930041,0 8.28734,-26.46206 -19.96857,-70.4206 -18.65112,-70.51791 z"
       id="path5360"
       inkscape:connector-curvature="0"
       sodipodi:nodetypes="ccssc" />
    <path
       style="fill:#b3b3b3;stroke:#000000;stroke-width:0.88174582;stroke-linecap:butt;stroke-linejoin:miter;stroke-miterlimit:4;stroke-dasharray:none;stroke-opacity:1"
       d="M 88.577654,105.60022 49.623393,109.09757 84.763723,97.584007 39.958333,95.69768 79.268844,85.705461 31.830762,74.279737 77.657457,70.497357 28.603307,46.403422 73.938528,50.596136 37.404573,28.876302 77.917025,35.381571 84.88088,6.2566642 105.88323,34.9717 131.40816,7.3712211 l -0.89648,28.8707699 36.0036,-2.894814 -38.09761,17.657865 48.92737,-0.393487 -38.82303,13.300187 37.75037,0.214782 -33.90421,16.990285 27.84417,12.069498 -32.51048,-2.021486 23.10732,19.618659 -24.66022,-6.45138 z"
       id="path5358"
       inkscape:connector-curvature="0"
       sodipodi:nodetypes="cccccccccccccccccccccccccc" />
    <ellipse
       id="path3703"
       cx="92.624985"
       cy="95.87233"
       rx="44.601189"
       ry="43.845234"
       style="fill:#ff9955;fill-opacity:1;stroke:#000000;stroke-width:2.26499987;stroke-miterlimit:4;stroke-dasharray:none;stroke-opacity:1"
       transform="rotate(-7.6920726)" />
    <ellipse
       transform="matrix(0.9905221,-0.13735348,0.13043089,0.9914574,0,0)"
       style="fill:#ffccaa;fill-opacity:1;stroke:none;stroke-width:2.1041677;stroke-miterlimit:4;stroke-dasharray:none;stroke-opacity:1"
       ry="41.252178"
       rx="40.911583"
       cy="95.237946"
       cx="95.908165"
       id="ellipse4519" />
    <path
       style="fill:#ffffff;fill-opacity:1;stroke:#000000;stroke-width:0.35984731;stroke-linecap:butt;stroke-linejoin:miter;stroke-miterlimit:4;stroke-dasharray:none;stroke-opacity:1"
       d="m 79.663908,66.759677 19.790988,0.26727 c 0,0 3.366404,11.820159 -9.995865,11.660015 C 75.796035,78.523214 79.663908,66.759677 79.663908,66.759677 Z"
       id="path4733"
       inkscape:connector-curvature="0"
       sodipodi:nodetypes="ccsc" />
    <path
       style="fill:#ffffff;fill-opacity:1;stroke:#000000;stroke-width:0.35984731;stroke-linecap:butt;stroke-linejoin:miter;stroke-miterlimit:4;stroke-dasharray:none;stroke-opacity:1"
       d="m 113.03931,66.873792 19.79203,0.174384 c 0,0 3.42183,11.80423 -9.94103,11.7068 -13.66362,-0.09962 -9.851,-11.881184 -9.851,-11.881184 z"
       id="path4733-3"
       inkscape:connector-curvature="0"
       sodipodi:nodetypes="ccsc" />
    <ellipse
       style="fill:#000000;fill-opacity:1;stroke:none;stroke-width:0.85599995;stroke-miterlimit:4;stroke-dasharray:none;stroke-opacity:1"
       id="path5295"
       cx="89.268585"
       cy="73.042519"
       rx="1.8708867"
       ry="2.1381562" />
    <ellipse
       style="fill:#000000;fill-opacity:1;stroke:none;stroke-width:0.85600001;stroke-miterlimit:4;stroke-dasharray:none;stroke-opacity:1"
       id="path5295-0"
       cx="123.59821"
       cy="73.04911"
       rx="1.8708867"
       ry="2.1381562" />
    <rect
       style="fill:none;fill-opacity:1;stroke:#000000;stroke-width:1.59595442;stroke-miterlimit:4;stroke-dasharray:none;stroke-opacity:1"
       id="rect5312"
       width="27.76457"
       height="15.985165"
       x="74.858681"
       y="64.869675" />
    <rect
       style="fill:#000000;fill-opacity:1;stroke:none;stroke-width:10.19382095;stroke-miterlimit:4;stroke-dasharray:none;stroke-opacity:1"
       id="rect5329"
       width="8.0642939"
       height="2.5820382"
       x="102.22611"
       y="64.072838" />
    <rect
       style="fill:none;fill-opacity:1;stroke:#000000;stroke-width:1.59595442;stroke-miterlimit:4;stroke-dasharray:none;stroke-opacity:1"
       id="rect5312-5"
       width="27.76457"
       height="15.985165"
       x="109.8635"
       y="64.881096" />
    <path
       style="fill:#ffffff;fill-opacity:1;stroke:#000000;stroke-width:1.03299999;stroke-linecap:butt;stroke-linejoin:miter;stroke-miterlimit:4;stroke-dasharray:none;stroke-opacity:1"
       d="m 90.367696,95.1825 30.939134,-0.19177 c 0,0 3.31637,11.85149 -6.61186,13.38599 -9.92823,1.53451 -19.491212,0.45904 -22.954548,-3.18535 -3.463333,-3.64444 -1.372719,-10.00882 -1.372719,-10.00882 z"
       id="path5333"
       inkscape:connector-curvature="0"
       sodipodi:nodetypes="ccsccc" />
    <rect
       style="fill:#000000;fill-opacity:1;stroke:none;stroke-width:0.44678476;stroke-miterlimit:4;stroke-dasharray:none;stroke-opacity:1"
       id="rect5335"
       width="13.974031"
       height="1.4544612"
       x="85.458839"
       y="-4.920599"
       transform="matrix(0.72244082,0.69143276,-0.61462292,0.78882106,0,0)" />
    <rect
       style="fill:#000000;fill-opacity:1;stroke:none;stroke-width:0.44678476;stroke-miterlimit:4;stroke-dasharray:none;stroke-opacity:1"
       id="rect5335-7"
       width="13.974032"
       height="1.4544612"
       x="69.042282"
       y="-144.22346"
       transform="matrix(0.72244082,-0.69143276,-0.61462293,-0.78882105,0,0)" />
    <path
       style="fill:#ffffff;fill-opacity:1;stroke:#000000;stroke-width:0.83700001;stroke-linecap:butt;stroke-linejoin:miter;stroke-miterlimit:4;stroke-dasharray:none;stroke-opacity:1"
       d="m 82.096749,122.19671 c -1.216596,-0.39928 4.460105,2.41709 12.898365,3.89827 -1.467451,25.89398 -5.803518,51.91753 -7.197786,75.00044 -1.218689,2.19365 -5.077498,1.85906 -14.192248,-5.42226 -6.915569,-5.52451 -10.941634,-13.5505 -11.845339,-19.43078 -1.282855,-8.34735 17.27746,-51.36633 20.337008,-54.04567 z"
       id="path5381"
       inkscape:connector-curvature="0"
       sodipodi:nodetypes="cccssc" />
    <path
       style="fill:#ffffff;fill-opacity:1;stroke:#000000;stroke-width:0.83700001;stroke-linecap:butt;stroke-linejoin:miter;stroke-miterlimit:4;stroke-dasharray:none;stroke-opacity:1"
       d="m 129.52658,119.92492 c 0.77458,-1.03023 -5.29012,3.85267 -12.65403,5.43704 0.62979,28.96363 4.25104,37.80632 6.64032,77.02788 2.35904,4.91003 19.34959,-5.21124 24.32326,-25.31322 2.01214,-8.13241 -13.08661,-57.62556 -18.30955,-57.1517 z"
       id="path5381-8"
       inkscape:connector-curvature="0"
       sodipodi:nodetypes="cccsc" />
  </g>
</svg>
